<?xml version="1.0" standalone="no"?>
<!DOCTYPE svg PUBLIC "-//W3C//DTD SVG 20010904//EN"
 "http://www.w3.org/TR/2001/REC-SVG-20010904/DTD/svg10.dtd">
<svg version="1.0" xmlns="http://www.w3.org/2000/svg"
 width="85.000000pt" height="85.000000pt" viewBox="0 0 85.000000 85.000000"
 preserveAspectRatio="xMidYMid meet">

<g transform="translate(0.000000,85.000000) scale(0.100000,-0.100000)"
fill="#000000" stroke="none">
<path d="M350 778 c-25 -6 -38 -13 -30 -16 25 -8 50 -34 50 -53 0 -44 -58 -58
-87 -21 -12 14 -13 14 -14 -4 -1 -12 -4 -8 -9 11 -7 29 -8 28 -9 -10 l-1 -40
63 -4 c102 -5 112 -7 112 -22 0 -16 -154 -33 -238 -26 -27 2 -43 1 -36 -4 9
-5 1 -18 -29 -46 -23 -21 -42 -47 -42 -58 0 -14 -3 -16 -9 -7 -13 21 -1 -99
16 -151 17 -56 48 -80 95 -75 l33 3 5 66 c8 108 42 129 208 129 61 0 118 3
127 6 32 13 45 59 45 159 0 53 -5 105 -11 117 -26 49 -135 69 -239 46z"/>
</g>
</svg>
